<svg id="图层_1" data-name="图层 1" xmlns="http://www.w3.org/2000/svg" viewBox="0 0 603.39 200.03"><defs><style>.cls-1{fill:#3860ca;}.cls-2{fill:#ff3600;}</style></defs><title>定稿 恒华客流LOGO 20250225_画板 1</title><rect class="cls-1" x="47.75" y="129.58" width="85.4" height="10.52"/><polygon class="cls-1" points="36.61 10.76 16.19 10.76 16.19 31.8 1.96 31.8 1.96 42.32 16.19 42.32 16.19 141.65 36.61 141.65 36.61 76.36 47.44 76.36 47.44 65.84 36.61 65.84 36.61 10.76"/><rect class="cls-1" x="47.75" y="13.23" width="85.4" height="10.52"/><path class="cls-1" d="M118.3,116.89h10.21V35.4l-75.81.11V88.45a28.44,28.44,0,0,0,28.44,28.44ZM73.13,46h35V70.79h-35Zm0,45.59V81.31h35v25.06H87.88A14.75,14.75,0,0,1,73.13,91.62Z"/><polygon class="cls-1" points="235.88 87.5 215.46 87.5 215.46 101.42 160.07 101.42 160.07 111.94 215.46 111.94 215.46 141.34 235.88 141.34 235.88 111.94 291.27 111.94 291.27 101.42 235.88 101.42 235.88 87.5"/><polygon class="cls-1" points="174.62 86.26 194.73 86.26 194.73 12.62 184.52 12.62 160.38 12.62 160.38 23.14 174.62 23.14 174.62 86.26"/><path class="cls-1" d="M271.16,15.71V35.82H248.57V10.92H228.15v24.9H200.61V46.34h27.54V58.17a25.61,25.61,0,0,0,25.61,25.61h36.89V73.26H263.48a14.9,14.9,0,0,1-14.91-14.9v-12h42.7V15.71Z"/><polygon class="cls-1" points="340.47 29.94 428.97 29.94 428.97 40.46 449.39 40.46 449.39 19.47 439.18 19.42 394.93 19.42 394.93 10.76 374.51 10.76 374.51 19.42 330.26 19.42 320.05 19.47 320.05 39.53 340.47 39.53 340.47 29.94"/><polygon class="cls-1" points="349.44 94 437.94 67.69 442.89 66.14 442.89 47.58 432.68 47.27 346.66 47.27 346.66 42.01 326.24 42.01 326.24 57.88 336.45 57.79 422.47 57.79 422.47 60.27 382.86 72.03 339.54 59.96 329.64 69.24 362.13 77.9 341.71 84.09 319.12 84.09 319.12 94.61 346.97 94.61 349.44 94"/><polygon class="cls-1" points="427.73 84.09 413.19 80.07 392.77 86.26 420.3 94 422.78 94.61 450.32 94.61 450.32 84.09 427.73 84.09"/><path class="cls-1" d="M325.93,98.33V117.9a24,24,0,0,0,24,24h69.5a24,24,0,0,0,24-24V98.33Zm20.42,20.41v-10.2h76.74v10.2a12.68,12.68,0,0,1-12.69,12.68H359A12.68,12.68,0,0,1,346.35,118.74Z"/><path class="cls-1" d="M34.18,163.51H43v34H34.18V183.85H18.31v13.64H9.42v-34h8.89v12.72H34.18Z"/><path class="cls-1" d="M95.6,189.87l-.87,7.62H76.43c-8.21,0-12.29-4.12-12.29-12.43V163.51h30.2l.88,7.62H73v5.73H93.27v6.94H73v1.6c0,2.77,1.51,4.47,4.42,4.47Z"/><path class="cls-1" d="M139.7,163.51h8.83v34h-7.67l-16.8-20v20h-8.88v-34h7.67l16.85,20.1Z"/><path class="cls-1" d="M193.06,180.94h8.4V195.7a38.6,38.6,0,0,1-7,2,39.3,39.3,0,0,1-7.62.77c-5.93,0-10.54-1.6-13.89-4.85s-5-7.62-5-13.11,1.6-9.95,4.85-13.16,8-4.8,14.28-4.8a43.57,43.57,0,0,1,12,1.65l.87,7.67A47.51,47.51,0,0,0,187.28,170c-7,0-10.34,3.89-10.34,10.49,0,6.41,3.79,10.49,10.05,10.49a28.76,28.76,0,0,0,6.07-.63Z"/><path class="cls-1" d="M246.09,163.51h8.83v34h-8.83V183.85H230.21v13.64h-8.89v-34h8.89v12.72h15.88Z"/><path class="cls-1" d="M275.9,163.51h8.89v18.84c0,5.68,2.33,8.64,7.72,8.64,5.19,0,7.76-2.87,7.76-8.64V163.51h8.84v19.42c0,9.95-5.34,15.53-16.6,15.53s-16.61-5.58-16.61-15.53Z"/><path class="cls-1" d="M355.58,197.49l-3-6.84H337l-3,6.84h-9.52l16.41-34H349l16.41,34Zm-15.83-13.16h10.1l-5.05-11.6Z"/><path class="cls-1" d="M405.94,197.49l-9.86-13-4.76,5v8h-8.83v-34h8.83v15.05l14.18-15.05H416l-14.17,14.9,14.51,19.08Z"/><path class="cls-1" d="M464.54,189.87l-.87,7.62h-18.3c-8.21,0-12.29-4.12-12.29-12.43V163.51h30.2l.88,7.62H441.92v5.73h20.29v6.94H441.92v1.6c0,2.77,1.5,4.47,4.42,4.47Z"/><path class="cls-1" d="M493,189.87h20.49v7.62H484.12v-34H493Z"/><path class="cls-1" d="M531.56,163.51h8.88v34h-8.88Z"/><path class="cls-1" d="M561.37,163.51h8.89v18.84c0,5.68,2.33,8.64,7.72,8.64,5.19,0,7.76-2.87,7.76-8.64V163.51h8.84v19.42c0,9.95-5.34,15.53-16.6,15.53s-16.61-5.58-16.61-15.53Z"/><polygon class="cls-1" points="596.92 19.21 561.96 19.21 561.96 10.8 541.23 10.8 541.23 19.21 504.4 19.21 504.4 29.73 596.92 29.73 596.92 19.21"/><polygon class="cls-1" points="511.83 132.06 504.4 132.06 504.4 141.34 522.35 141.34 532.25 141.34 532.25 76.98 511.83 76.98 511.83 132.06"/><rect class="cls-1" x="541.53" y="76.98" width="20.73" height="64.36"/><polygon class="cls-1" points="591.66 132.06 591.66 76.98 571.55 76.98 571.55 141.34 581.45 141.34 597.54 141.34 597.54 132.06 591.66 132.06"/><path class="cls-1" d="M537,35.7H516.24l-7.42,23.74a8.82,8.82,0,0,0,8.35,11.66H593V39.72H572.56V60.58H536.37a5.12,5.12,0,0,1-4.85-6.76Z"/><path class="cls-2" d="M482.56,10.76c-12.28,16.62-15.41,31.63-15,43.33.95,15.92,12.74,31,14.65,33.92,18,27.59-9.85,53.34-11.22,53.64H489.3s36.66-25.28,7.72-64c-5.84-7.49-14.3-17.21-14.31-34.19.35-12.36,7-24.29,14-32.69"/></svg>